<svg id="twitter-icon" class="social-menu__svg-icon" width="17px" height="14px" viewBox="0 0 17 14" version="1.1" xmlns="http://www.w3.org/2000/svg" xmlns:xlink="http://www.w3.org/1999/xlink">
    <g stroke="none" stroke-width="1" fill="none" fill-rule="evenodd" opacity="0.8">
        <g class="social-menu__svg-fill" transform="translate(-29.000000, -2.000000)" fill="#FEFEFE">
            <g>
                <g transform="translate(29.000000, 2.000000)">
                    <path d="M17.0371,1.6392 C16.4111,1.9172 15.7361,2.1052 15.0301,2.1892 C15.7521,1.7572 16.3061,1.0722 16.5661,0.2562 C15.8911,0.6572 15.1441,0.9472 14.3461,1.1032 C13.7101,0.4242 12.8011,0.0002 11.7951,0.0002 C9.8661,0.0002 8.3011,1.5652 8.3011,3.4952 C8.3011,3.7692 8.3311,4.0352 8.3911,4.2912 C5.4861,4.1452 2.9111,2.7552 1.1861,0.6382 C0.8851,1.1572 0.7131,1.7572 0.7131,2.3972 C0.7131,3.6092 1.3301,4.6792 2.2681,5.3062 C1.6951,5.2892 1.1561,5.1302 0.6841,4.8702 L0.6841,4.9132 C0.6841,6.6072 1.8891,8.0202 3.4891,8.3402 C3.1951,8.4222 2.8871,8.4632 2.5671,8.4632 C2.3421,8.4632 2.1231,8.4422 1.9101,8.4012 C2.3541,9.7892 3.6451,10.8012 5.1751,10.8272 C3.9791,11.7652 2.4711,12.3242 0.8341,12.3242 C0.5521,12.3242 0.2731,12.3082 0.0001,12.2762 C1.5471,13.2662 3.3841,13.8452 5.3581,13.8452 C11.7881,13.8452 15.3031,8.5202 15.3031,3.9012 C15.3031,3.7492 15.3001,3.5972 15.2931,3.4482 C15.9761,2.9552 16.5701,2.3402 17.0371,1.6392"></path>
                </g>
            </g>
        </g>
    </g>
</svg>