<svg id="instagram-icon" class="social-menu__svg-icon" width="18px" height="18px" viewBox="0 0 18 18" version="1.1" xmlns="http://www.w3.org/2000/svg" xmlns:xlink="http://www.w3.org/1999/xlink">
    <g stroke="none" stroke-width="1" fill="none" fill-rule="evenodd" opacity="0.8">
        <g class="social-menu__svg-fill" transform="translate(-143.000000, 0.000000)" fill="#FEFEFE">
            <g>
                <g transform="translate(143.000000, 0.000000)">
                    <path d="M15.3506,13.7211 C15.3506,14.6201 14.6206,15.3501 13.7206,15.3501 L3.2866,15.3501 C2.3876,15.3501 1.6576,14.6201 1.6576,13.7211 L1.6576,6.7581 L4.1966,6.7581 C3.9766,7.2981 3.8536,7.8871 3.8536,8.5041 C3.8536,11.0681 5.9396,13.1551 8.5036,13.1551 C11.0686,13.1551 13.1546,11.0681 13.1546,8.5041 C13.1546,7.8871 13.0306,7.2981 12.8116,6.7581 L15.3506,6.7581 L15.3506,13.7211 Z M6.0776,6.7581 C6.6206,6.0041 7.5046,5.5101 8.5036,5.5101 C9.5026,5.5101 10.3866,6.0041 10.9306,6.7581 C11.2866,7.2501 11.4976,7.8521 11.4976,8.5041 C11.4976,10.1541 10.1546,11.4971 8.5036,11.4971 C6.8536,11.4971 5.5106,10.1541 5.5106,8.5041 C5.5106,7.8521 5.7226,7.2501 6.0776,6.7581 L6.0776,6.7581 Z M14.6636,1.9601 L15.0396,1.9591 L15.0396,2.3331 L15.0396,4.8421 L12.1656,4.8511 L12.1566,1.9681 L14.6636,1.9601 Z M13.7206,0.0001 L3.2866,0.0001 C1.4746,0.0001 -0.0004,1.4741 -0.0004,3.2861 L-0.0004,6.7581 L-0.0004,13.7211 C-0.0004,15.5331 1.4746,17.0081 3.2866,17.0081 L13.7206,17.0081 C15.5336,17.0081 17.0076,15.5331 17.0076,13.7211 L17.0076,6.7581 L17.0076,3.2861 C17.0076,1.4741 15.5336,0.0001 13.7206,0.0001 L13.7206,0.0001 Z"></path>
                </g>
            </g>
        </g>
    </g>
</svg>